HIERARCHY
ROOT hips
{
  OFFSET 0 10.680822821525009 1.3929502295107734
  CHANNELS 6 Xposition Yposition Zposition Yrotation Xrotation Zrotation
  JOINT spine
  {
    OFFSET -7.042017322922631e-31 0.6058489940359625 0
    CHANNELS 3 Yrotation Xrotation Zrotation
    JOINT chest
    {
      OFFSET 0 1.2699794144455032 0
      CHANNELS 3 Yrotation Xrotation Zrotation
      JOINT upperChest
      {
        OFFSET 0 1.217799211677689 0
        CHANNELS 3 Yrotation Xrotation Zrotation
        JOINT neck
        {
          OFFSET 0 1.5248826104153006 0
          CHANNELS 3 Yrotation Xrotation Zrotation
          JOINT head
          {
            OFFSET 0 0.8197772727844447 0
            CHANNELS 3 Yrotation Xrotation Zrotation
            JOINT leftEye
            {
              OFFSET 0.2793952361220866 0.6769952096623495 0.1830357412467788
              CHANNELS 3 Yrotation Xrotation Zrotation
              End Site
              {
                OFFSET 0.2793952361220866 0.6769952096623495 0.1830357412467788
              }
            }
            JOINT rightEye
            {
              OFFSET -0.27939522230689573 0.676995205357064 0.18303631459760622
              CHANNELS 3 Yrotation Xrotation Zrotation
              End Site
              {
                OFFSET -0.27939522230689573 0.676995205357064 0.18303631459760622
              }
            }
          }
        }
        JOINT leftShoulder
        {
          OFFSET 0.41486978509200423 1.1670505408695453 0
          CHANNELS 3 Yrotation Xrotation Zrotation
          JOINT leftUpperArm
          {
            OFFSET 0.9737926108153417 0 0
            CHANNELS 3 Yrotation Xrotation Zrotation
            JOINT leftLowerArm
            {
              OFFSET 2.5269332222665284 0 0
              CHANNELS 3 Yrotation Xrotation Zrotation
              JOINT leftHand
              {
                OFFSET 2.4263782738425914 0 0
                CHANNELS 3 Yrotation Xrotation Zrotation
                JOINT leftIndexProximal
                {
                  OFFSET 0.724320348022514 0.08170607082582437 0.20360061616140124
                  CHANNELS 3 Yrotation Xrotation Zrotation
                  JOINT leftIndexIntermediate
                  {
                    OFFSET 0.36548960630744587 -0.010566596513783999 -0.01414783573280308
                    CHANNELS 3 Yrotation Xrotation Zrotation
                    JOINT leftIndexDistal
                    {
                      OFFSET 0.22502819650693362 -0.007863819831430696 -0.007567681939621526
                      CHANNELS 3 Yrotation Xrotation Zrotation
                      End Site
                      {
                        OFFSET 0.22502819650693362 -0.007863819831430696 -0.007567681939621526
                      }
                    }
                  }
                }
                JOINT leftLittleProximal
                {
                  OFFSET 0.6720322998298205 0.08170601055037707 -0.3230036039466837
                  CHANNELS 3 Yrotation Xrotation Zrotation
                  JOINT leftLittleIntermediate
                  {
                    OFFSET 0.34583592281688713 5.476543019078406e-8 1.3869203337180114e-7
                    CHANNELS 3 Yrotation Xrotation Zrotation
                    JOINT leftLittleDistal
                    {
                      OFFSET 0.19925728062053938 0.003098047439490381 0.0038303983709246925
                      CHANNELS 3 Yrotation Xrotation Zrotation
                      End Site
                      {
                        OFFSET 0.19925728062053938 0.003098047439490381 0.0038303983709246925
                      }
                    }
                  }
                }
                JOINT leftMiddleProximal
                {
                  OFFSET 0.7300436596551069 0.0817073395107144 0.022661722987926763
                  CHANNELS 3 Yrotation Xrotation Zrotation
                  JOINT leftMiddleIntermediate
                  {
                    OFFSET 0.40758254347686607 -0.0000012383587111308714 2.408460318820138e-7
                    CHANNELS 3 Yrotation Xrotation Zrotation
                    JOINT leftMiddleDistal
                    {
                      OFFSET 0.2514490105498507 0.0000013869132886590307 9.738618134136345e-8
                      CHANNELS 3 Yrotation Xrotation Zrotation
                      End Site
                      {
                        OFFSET 0.2514490105498507 0.0000013869132886590307 9.738618134136345e-8
                      }
                    }
                  }
                }
                JOINT leftRingProximal
                {
                  OFFSET 0.7217261161191838 0.08170601902187746 -0.15043395722184966
                  CHANNELS 3 Yrotation Xrotation Zrotation
                  JOINT leftRingIntermediate
                  {
                    OFFSET 0.37808807487521556 0.0000013754022405443322 2.2046919317952884e-7
                    CHANNELS 3 Yrotation Xrotation Zrotation
                    JOINT leftRingDistal
                    {
                      OFFSET 0.21812105442344254 -0.002713483731960231 -0.004991354517454624
                      CHANNELS 3 Yrotation Xrotation Zrotation
                      End Site
                      {
                        OFFSET 0.21812105442344254 -0.002713483731960231 -0.004991354517454624
                      }
                    }
                  }
                }
                JOINT leftThumbProximal
                {
                  OFFSET 0.10793587079521427 -0.1652791240518252 -0.07775251827190094
                  CHANNELS 3 Yrotation Xrotation Zrotation
                  JOINT leftThumbIntermediate
                  {
                    OFFSET 0.40355819082296684 -0.017484006740276614 0.3177776014416309
                    CHANNELS 3 Yrotation Xrotation Zrotation
                    JOINT leftThumbDistal
                    {
                      OFFSET 0.2318764658022603 -0.018510186824293617 0.21396001800186287
                      CHANNELS 3 Yrotation Xrotation Zrotation
                      End Site
                      {
                        OFFSET 0.2318764658022603 -0.018510186824293617 0.21396001800186287
                      }
                    }
                  }
                }
              }
            }
          }
        }
        JOINT rightShoulder
        {
          OFFSET -0.4148697850920044 1.1670505408695453 0
          CHANNELS 3 Yrotation Xrotation Zrotation
          JOINT rightUpperArm
          {
            OFFSET -0.9737926108153414 0 0
            CHANNELS 3 Yrotation Xrotation Zrotation
            JOINT rightLowerArm
            {
              OFFSET -2.5269332222665293 0 0
              CHANNELS 3 Yrotation Xrotation Zrotation
              JOINT rightHand
              {
                OFFSET -2.42637827384259 0 0
                CHANNELS 3 Yrotation Xrotation Zrotation
                JOINT rightIndexProximal
                {
                  OFFSET -0.724320348022514 0.08170607082582437 0.20360061616140124
                  CHANNELS 3 Yrotation Xrotation Zrotation
                  JOINT rightIndexIntermediate
                  {
                    OFFSET -0.36548960630744587 -0.010566596513783999 -0.01414783573280308
                    CHANNELS 3 Yrotation Xrotation Zrotation
                    JOINT rightIndexDistal
                    {
                      OFFSET -0.22502819650693362 -0.007863819831430696 -0.007567681939621526
                      CHANNELS 3 Yrotation Xrotation Zrotation
                      End Site
                      {
                        OFFSET -0.22502819650693362 -0.007863819831430696 -0.007567681939621526
                      }
                    }
                  }
                }
                JOINT rightLittleProximal
                {
                  OFFSET -0.6720322998298205 0.08170601055037707 -0.3230036039466837
                  CHANNELS 3 Yrotation Xrotation Zrotation
                  JOINT rightLittleIntermediate
                  {
                    OFFSET -0.34583592281688713 5.476543019078406e-8 1.3869203337180114e-7
                    CHANNELS 3 Yrotation Xrotation Zrotation
                    JOINT rightLittleDistal
                    {
                      OFFSET -0.19925728062053938 0.003098047439490381 0.0038303983709246925
                      CHANNELS 3 Yrotation Xrotation Zrotation
                      End Site
                      {
                        OFFSET -0.19925728062053938 0.003098047439490381 0.0038303983709246925
                      }
                    }
                  }
                }
                JOINT rightMiddleProximal
                {
                  OFFSET -0.7300436596551069 0.0817073395107144 0.022661722987926763
                  CHANNELS 3 Yrotation Xrotation Zrotation
                  JOINT rightMiddleIntermediate
                  {
                    OFFSET -0.40758254347686607 -0.0000012383587111308714 2.408460318820138e-7
                    CHANNELS 3 Yrotation Xrotation Zrotation
                    JOINT rightMiddleDistal
                    {
                      OFFSET -0.2514490105498507 0.0000013869132886590307 9.738618134136345e-8
                      CHANNELS 3 Yrotation Xrotation Zrotation
                      End Site
                      {
                        OFFSET -0.2514490105498507 0.0000013869132886590307 9.738618134136345e-8
                      }
                    }
                  }
                }
                JOINT rightRingProximal
                {
                  OFFSET -0.7217261161191838 0.08170601902187746 -0.15043395722184966
                  CHANNELS 3 Yrotation Xrotation Zrotation
                  JOINT rightRingIntermediate
                  {
                    OFFSET -0.37808807487521556 0.0000013754022405443322 2.2046919317952884e-7
                    CHANNELS 3 Yrotation Xrotation Zrotation
                    JOINT rightRingDistal
                    {
                      OFFSET -0.21812105442344254 -0.002713483731960231 -0.004991354517454624
                      CHANNELS 3 Yrotation Xrotation Zrotation
                      End Site
                      {
                        OFFSET -0.21812105442344254 -0.002713483731960231 -0.004991354517454624
                      }
                    }
                  }
                }
                JOINT rightThumbProximal
                {
                  OFFSET -0.10793587079521427 -0.1652791240518252 -0.07775251827190094
                  CHANNELS 3 Yrotation Xrotation Zrotation
                  JOINT rightThumbIntermediate
                  {
                    OFFSET -0.40355819082296684 -0.017484006740276614 0.3177776014416309
                    CHANNELS 3 Yrotation Xrotation Zrotation
                    JOINT rightThumbDistal
                    {
                      OFFSET -0.2318764658022603 -0.018510186824293617 0.21396001800186287
                      CHANNELS 3 Yrotation Xrotation Zrotation
                      End Site
                      {
                        OFFSET -0.2318764658022603 -0.018510186824293617 0.21396001800186287
                      }
                    }
                  }
                }
              }
            }
          }
        }
      }
    }
  }
  JOINT leftUpperLeg
  {
    OFFSET 0.8486251390888677 -0.4421577294694363 0
    CHANNELS 3 Yrotation Xrotation Zrotation
    JOINT leftLowerLeg
    {
      OFFSET 0 -4.10147812638609 0
      CHANNELS 3 Yrotation Xrotation Zrotation
      JOINT leftFoot
      {
        OFFSET -0.0002543926476658853 -4.77292286812444 0.007402811231737388
        CHANNELS 3 Yrotation Xrotation Zrotation
        JOINT leftToes
        {
          OFFSET 0 -0.7027875951174846 1.2062924140498823
          CHANNELS 3 Yrotation Xrotation Zrotation
          End Site
          {
            OFFSET 0 -0.7027875951174846 1.2062924140498823
          }
        }
      }
    }
  }
  JOINT rightUpperLeg
  {
    OFFSET -0.8486251390888677 -0.4421577294694363 0
    CHANNELS 3 Yrotation Xrotation Zrotation
    JOINT rightLowerLeg
    {
      OFFSET 0 -4.10147812638609 0
      CHANNELS 3 Yrotation Xrotation Zrotation
      JOINT rightFoot
      {
        OFFSET 0.0002543926476658853 -4.77292286812444 0.007402811231737388
        CHANNELS 3 Yrotation Xrotation Zrotation
        JOINT rightToes
        {
          OFFSET 0 -0.7027875951174846 1.2062924140498823
          CHANNELS 3 Yrotation Xrotation Zrotation
          End Site
          {
            OFFSET 0 -0.7027875951174846 1.2062924140498823
          }
        }
      }
    }
  }
}
MOTION
Frames: 4
Frame Time: 0.03333333333333333
0.8615673780441284 -3.6038217267068937 -0.7992241978645325 -8.812597955986583 10.840773615153434 2.3334098973656023 -2.165766977003969 17.926100252232693 -1.3638583495559695 -3.767731652634566 -2.717096156636689 -0.636492768621314 0 0 0 6.041347853008412 -12.74870521585403 2.1714683739386613 33.2341326816569 -17.432253889978742 -10.282957950470418 0 0 0 0 0 0 2.8605070607390175 0.35503884022525894 -3.0916398368057525 -42.45697889484801 36.43134940805795 -42.11758344870436 -65.63442041453344 -6.954110338134564 5.436335939525836 -44.57897507236334 31.524414477374926 11.644470583377165 1.7639302930208036 4.179374305491179 -14.360060933577458 3.1260923930136357 1.0634346383111812 -37.56812219908045 3.206703218358728 1.1267196851321073 -38.71254099055701 14.415000746982338 -10.941888860535515 -25.644227915975247 3.7897828040573707 1.6736570824527146 -47.6441725252918 3.769130771692173 1.6511685039624535 -47.30343021860308 4.767151600883877 0.6961775445240882 -25.715409657975204 3.040298183123331 0.9988523151403924 -36.369382992922574 3.9714041522905927 1.8839199206859696 -50.74465059111122 6.3705829719969875 1.8480240363332168 -28.362220401718034 3.0682670670264964 1.0195844084133299 -36.75796857038604 3.8410881204152303 1.7307652716555224 -48.50100831164741 10.364496077537162 0.07343636644296944 26.86350249270511 2.895233973846667 0.11761152449190478 -0.0029211000742793442 -11.483200604576092 -14.340346943516309 11.320799283357763 -19.24375721430475 -5.373383027577704 5.3219774907720545 82.59859863226546 29.70745612820644 41.98389483101537 62.46606029932706 -6.796172254127305 -5.01662177066193 50.47160777730682 39.31357753070389 19.60259346020806 9.007410550775573 8.166282929437573 23.951887423153778 -1.673405594122624 0.37475810308421975 25.244555474004414 -1.9885230405555907 0.5412386959794304 30.44853680843349 -19.450520426904056 -7.285302463439942 26.359487569247076 -2.464313390155702 0.8703248071679116 38.89886718241097 -2.1909341007337724 0.6686448598109062 33.939637980094076 -0.9615052152120449 -1.8539497560862945 28.69250807641758 -2.1895813364125343 0.667716051007561 33.9158809228296 -2.830412703383865 1.206055116814583 46.150883609628785 -6.821635917705315 2.421431566958131 26.94744983000491 -2.2897195291312102 0.7373525072509829 35.69583551186143 -2.5059627579563215 0.9044103121598001 39.68396925387436 -9.957080716732252 -4.73885572559693 -37.02515351998422 -2.7743218482037935 -0.550180779694001 -0.5312932476690266 -15.478002098199537 0.8807311749944542 -19.76683625416895 -4.531209672344155 -61.78925270113739 50.668020335106625 -33.30264017656264 73.61535920552215 -34.37917530144465 -7.551185205107644 -24.121523681944552 -23.75460280838795 -0.000004312112365327404 4.0228994905475215 0.0000010646956371066687 30.553009367949898 -57.702221914898324 -61.09100557752013 41.74021124701572 77.05158042225978 40.23426271575425 10.576214497361153 -27.4721644006432 20.14247158016085 0.0000019363551025096125 -0.8481066382935465 -0.000019311556440091773
0.9328008890151978 -3.4443554600748136 -0.9050806164741516 -9.494955878004706 4.37851510226717 1.143426237519601 -2.9875046642578504 24.848202269003444 -5.178403661004879 -3.7734672462610623 0.4616392846611974 4.572044606515092 0 0 0 6.188411270693401 -13.106690399811018 1.849160677067268 34.08063171894871 -19.471282816543514 -11.99333650142177 0 0 0 0 0 0 -2.515750007224282 0.7552052013110259 -1.6939752939315098 -34.403751424579475 28.175062108938626 -44.95682102289179 -64.06225261437953 -6.878614134349355 5.2270285998329475 -48.347117165138506 32.71594015964424 7.258371134346168 1.7637293266499947 4.179339635463949 -14.360090828412822 3.1345531351502514 1.0699576388999055 -37.68742097294763 3.2150710477378768 1.1334136119934624 -38.832169693952224 14.420796347168274 -10.934586196825952 -25.7616090559188 3.7993134524384855 1.6840955311162842 -47.802197092764466 3.7787457771874795 1.6615996799820458 -47.46165307712617 4.767225344494987 0.6962203430875843 -25.715402021867654 3.0489032515296914 1.0052201992021585 -36.48861254622139 3.978176714394115 1.8922111490087425 -50.864245789260075 6.371377546723633 1.8512828807694877 -28.463078608141764 3.0768052476396064 1.0260023936994591 -36.87715178652896 3.8481301283954554 1.7387311088310113 -48.61971823494913 10.428178761455879 0.13196562800180955 26.781073341494775 2.9292241003064983 0.1409946834619121 0.007835083676105475 -11.448940230225116 -14.315221798839515 11.32825198241299 -21.286678773459155 -5.762589193146768 5.744602214562546 81.89158873802364 26.738199455521663 37.1948886117234 56.213337378988044 -6.4176429998066675 -4.216860893167246 57.647797396513056 35.42836739637347 20.51707087391378 9.011945029352173 8.164061947641397 23.881372500458554 -1.6809335103776533 0.3783119059065641 25.36618876050572 -1.9957408286628544 0.5454824086352239 30.570865922454665 -19.428871709856114 -7.286422264490152 26.43786327710135 -2.4740565697289076 0.8782308177563671 39.081973132892784 -2.200796559820696 0.6753075806060529 34.11346230029287 -0.9614158055140829 -1.8540234326314755 28.69241331587788 -2.196464577407456 0.6723931294263863 34.037438464873986 -2.8361843724732 1.212042577043337 46.2723874737255 -6.813365795473084 2.4180384197424165 26.988796514746603 -2.296429032414441 0.7421917794760026 35.816509484013395 -2.5116918378386517 0.9091635451564886 39.7929506731839 -9.936961068786404 -4.766142230496822 -37.07712200811245 -2.8421382450188273 -0.5051883609762214 -0.5509283197982807 -15.547723762143908 0.9174013729139917 -19.799795388830216 -2.3107168456969367 -55.59002507248082 48.57541582470193 -31.278698367879073 72.7194513938934 -31.059713011896815 -6.603604640132787 -23.994452442702894 -23.753392815596573 0.0000057113843025404715 4.050630555392766 -9.575121030311978e-7 22.471228094867314 -52.54263714901963 -52.1456402427591 34.16243120512179 75.03403802046061 32.45694737343059 11.788628522003904 -25.914051548302915 19.26294498819748 -0.000011749312893576946 -0.8481920250133438 0.0000026115607848919877
0.9557729959487915 -3.378753157523544 -0.9293665289878845 -9.810834680029897 2.627862565951572 0.244583129265727 -3.064928506867032 26.470194620456095 -5.770434673831465 -3.5525583744760127 1.712872662720806 5.979752158392357 0 0 0 6.214411082891481 -13.227002155663003 1.7435546737668486 34.34524820022718 -20.25361417927171 -12.43890194047356 0 0 0 0 0 0 -3.776721912744824 0.8845062095484005 -1.3236316088106392 -32.22202507508375 25.844380615231554 -46.07707867072069 -63.51248944823782 -6.850853170766133 5.15431578012222 -49.418909529914366 33.103116425712095 6.36488237888181 1.7636818399479262 4.179340491513985 -14.360088320551846 3.1373647219893517 1.0721226535131794 -37.72737576965227 3.217846897279413 1.1356650275845017 -38.871839752774676 14.422748658882655 -10.932134914328254 -25.80079013937176 3.8024644303002044 1.6876258123984484 -47.85488418915028 3.781915858153895 1.6650860395908396 -47.51443102012177 4.7672707251295545 0.6962628748275035 -25.715418776007006 3.051765056777167 1.007319952423837 -36.52845292025949 3.9804194943818225 1.8949936226943163 -50.90399286610788 6.37163900985281 1.852393366480192 -28.496803414551746 3.0796466554647095 1.0281030143479264 -36.916696761180305 3.8505020066330977 1.741426754797175 -48.659517168495725 10.449851517468405 0.15153972950359018 26.753707502743946 2.940726614412017 0.1489185553580079 0.01146005233789651 -11.43917776093808 -14.307959620134104 11.330520065200258 -21.931535173676437 -5.8955282794495405 5.921757468463988 81.7325987555093 25.58365546031095 35.79904385395803 53.82464950599598 -6.250320105375196 -3.9228390482476874 60.335730390050976 33.891128891743634 20.785123210577687 9.01347816794969 8.16333226078385 23.857842106457984 -1.683468986622479 0.3795258118146651 25.406987077608886 -1.9981105582752219 0.5468772179816009 30.610956231248036 -19.421674894239544 -7.2868061477386705 26.463921305326807 -2.4773016041373555 0.8808827377256121 39.142946370494116 -2.2041035063756307 0.6775505469241192 34.171694190296506 -0.9613620466090687 -1.8540415848242373 28.692402683436747 -2.198765037486686 0.6739422485430611 34.077961485679005 -2.8381144662545963 1.214079283649222 46.312846676164206 -6.810611488805103 2.4169241071774143 27.00250076243787 -2.298670960335399 0.7437885771725575 35.856744766155124 -2.513612816290871 0.9107750327042757 39.82933907104418 -9.930279371135168 -4.77523183257747 -37.09445790430972 -2.8650074889263513 -0.49003597529483545 -0.5575146766357335 -15.570659303855026 0.9293602392790652 -19.810799545849196 -1.8412138707346355 -54.01075669598524 48.835622044103616 -30.164481605579688 72.32425111581638 -29.55130264552869 -6.754473079835058 -23.873395885766108 -23.543698615627125 7.088692682333739e-8 4.0598898611568695 0.000005981015768423699 19.747140689829838 -51.07341726373065 -49.02565857049435 31.81783935872416 74.03303837148901 30.32035932499085 12.19211251579896 -25.247400771513362 18.643274024445212 0.000020768877809627736 -0.8468026765827644 -8.719802133275473e-7
1.0294225215911865 -3.1798081120523527 -0.9579994678497314 -10.68693381118069 0.21630029177430127 -3.847448997358269 -2.4404565268396357 27.555352714967118 -5.11130366926432 -2.67249643744188 5.807557665242926 9.411216339952865 0 0 0 6.376854004544084 -13.54829923253839 1.077236284955099 34.94517081480761 -22.33299195116003 -13.22301795827883 0 0 0 0 0 0 -5.462026316360625 1.1066543279359327 -0.9728866056802022 -29.37881636172881 19.883309322855894 -48.80525563961427 -60.560172610554844 -6.69007324586803 4.768643571655064 -51.33093388667922 33.759813710757186 6.061939664297688 1.7635133880820772 4.179294264813346 -14.360119873992325 3.145803130236002 1.078662324130584 -37.84653315074462 3.2262019894149194 1.142396121679858 -38.99161756297634 14.42853971614982 -10.924863793934804 -25.918173098385346 3.81195816883504 1.698154875732797 -48.01300768187532 3.7914958545974526 1.6755388561956939 -47.67275662447651 4.76732319667337 0.6962947869738929 -25.715423391644606 3.060353724226912 1.0136957516579799 -36.64800075038969 3.98715635114177 1.9032797785280393 -51.0233275836298 6.37244127426704 1.8556317176328 -28.597755656750135 3.08816995972028 1.034512691090465 -37.03583089856356 3.857537931454525 1.749415592869616 -48.77827853423572 10.51422721930379 0.2102875091835931 26.671466488519123 2.973963938461588 0.171846963393121 0.022077841290877587 -11.405206722036342 -14.283200191879432 11.337743101306032 -23.76783828567126 -6.290027164758503 6.501674944598432 81.6256865478125 22.758845998074825 32.48119606828072 47.01348138827951 -5.707438122342517 -3.125580624508998 67.97668169650858 29.52693676007869 21.32534506614794 9.018017379323476 8.161138895666534 23.787259374375775 -1.6909978646681643 0.3831064310207016 25.528789112971584 -2.005290056166457 0.5511332081825701 30.73280303877702 -19.400105371310637 -7.288024075468721 26.542154057299083 -2.4870127007789202 0.8887911722074705 39.325868045542634 -2.2139706942623913 0.6842801992276614 34.345824062058796 -0.9613146440264663 -1.8540729774403941 28.6924516332758 -2.2056723167391707 0.6786240823826001 34.19945523919619 -2.843855464581069 1.220101240562003 46.43450399251617 -6.802421548552328 2.4135335348263847 27.043621218821244 -2.3053666195645386 0.7486614766544067 35.97752091283525 -2.519351449584817 0.9155761982518607 39.93834408231909 -9.910210001555598 -4.802614457713401 -37.14652271107604 -2.933406998606008 -0.44462781961912784 -0.5773375850389999 -15.639753268740353 0.9653795771059418 -19.84372937280271 -2.0974341375028334 -52.213395253204375 52.21520701211746 -27.274980420697457 70.95693063264454 -25.32213006396612 -7.541961947413376 -23.607855590589075 -22.923816062304308 -0.000012447336795021105 4.087598228697298 -0.0000033865818921778844 12.023583282169076 -48.8333825772074 -40.376599879256915 26.86458030186513 70.39901892202903 27.292691661453986 13.463148125632138 -22.857674763106516 14.739996467304474 -0.000013972581181423338 -0.8378001014276838 0.000004595182743527349
